<?xml version="1.0" encoding="utf-8"?>
<svg width="29.929" height="29.663" viewBox="0 0 29.929 29.663" fill="none" xmlns="http://www.w3.org/2000/svg">
  <g>
    <rect width="29.929" height="29.663" />
    <path id="Path" d="M29.0053 14.3738C29.0053 6.43661 22.511 0 14.5027 0C6.49434 0 0 6.43661 0 14.3738C0 22.3109 6.49434 28.7475 14.5027 28.7475C22.511 28.7475 29.0053 22.3109 29.0053 14.3738C29.0053 14.3738 29.0053 14.3738 29.0053 14.3738Z" fill="#59C8A8" fill-rule="evenodd" transform="translate(0.462 0.458)" />
    <path id="Path" d="M16.0767 0.696866C15.7376 -0.177958 15.042 -0.0389118 14.2879 0.111719C13.8378 0.204416 11.8328 0.78377 8.67043 4.09767C7.3552 5.47074 6.49006 6.56571 5.91721 7.39998C5.56648 6.97705 5.16898 6.51936 4.74811 6.10802C3.45626 4.82765 2.01242 3.94704 1.95397 3.91228C1.35188 3.54728 0.56274 3.73268 0.188629 4.33521C-0.179636 4.93194 0.00741911 5.71407 0.609504 6.08485C0.621195 6.09064 1.86044 6.8496 2.92432 7.90981C4.01158 8.98741 4.99947 10.4474 5.01116 10.4648C5.25082 10.824 5.65416 11.0325 6.08088 11.0325C6.15103 11.0325 6.22702 11.0267 6.30301 11.0151C6.80572 10.9282 7.20321 10.5575 7.32597 10.0708C7.33182 10.0592 7.84037 8.66298 10.5234 5.8589C12.6863 3.59363 14.1301 2.87523 14.6328 2.67826C14.6387 2.67826 14.6387 2.67826 14.6504 2.67826C14.6504 2.67826 14.6679 2.67246 14.6971 2.65508C14.7848 2.62032 14.8316 2.60873 14.8316 2.60873C14.8082 2.61453 14.7965 2.61453 14.7965 2.61453C14.7965 2.61453 14.7965 2.60873 14.7965 2.60873C15.0303 2.51024 15.4629 2.32485 15.4687 2.31906C16.1176 2.04097 16.3339 1.34574 16.0767 0.696866C16.0767 0.696866 16.0767 0.696866 16.0767 0.696866Z" fill="#FFFFFF" fill-rule="evenodd" transform="translate(6.873 9.32)" />
  </g>
</svg>