<?xml version="1.0" encoding="utf-8"?>
<svg width="29.929" height="29.663" viewBox="0 0 29.929 29.663" fill="none" xmlns="http://www.w3.org/2000/svg">
  <g>
    <rect width="29.929" height="29.663" />
    <path id="Shape" d="M19.7811 0C19.2705 0 18.7599 0.193241 18.3704 0.579354C18.3704 0.579354 15.962 2.96629 15.962 2.96629L20.9502 7.91011C20.9502 7.91011 23.3585 5.52317 23.3585 5.52317C24.1377 4.75095 24.1377 3.49905 23.3585 2.72682C23.3585 2.72682 21.1918 0.579354 21.1918 0.579354C20.8022 0.193241 20.2916 0 19.7811 0C19.7811 0 19.7811 0 19.7811 0ZM13.9669 4.94382C13.9669 4.94382 2.25446 16.5521 2.25446 16.5521C2.25446 16.5521 3.17004 16.4708 3.51123 16.809C3.85242 17.1471 3.57156 19.36 3.99056 19.7753C4.40957 20.1905 6.62819 19.8982 6.94643 20.2136C7.26467 20.5291 7.2426 21.4959 7.2426 21.4959C7.2426 21.4959 18.955 9.88763 18.955 9.88763L13.9669 4.94382L13.9669 4.94382ZM0.997629 19.7753C0.997629 19.7753 0.0565064 22.4171 0.0565064 22.4171C0.0195093 22.5214 0.000408888 22.631 0 22.7416C0 23.2876 0.446654 23.7303 0.997629 23.7303C1.10914 23.7299 1.21978 23.711 1.32498 23.6743C1.32823 23.673 1.33147 23.6718 1.33471 23.6705C1.33471 23.6705 1.36005 23.6627 1.36005 23.6627C1.36201 23.6614 1.36396 23.6602 1.36591 23.6589C1.36591 23.6589 3.99052 22.7416 3.99052 22.7416L2.49407 21.2584L0.997629 19.7753L0.997629 19.7753Z" fill="#4E1D57" transform="translate(2.993 2.966)" />
  </g>
</svg>