<?xml version="1.0" encoding="utf-8"?>
<svg width="35.915" height="35.595" viewBox="0 0 35.915 35.595" fill="none" xmlns="http://www.w3.org/2000/svg">
  <g>
    <rect width="35.915" height="35.595" />
    <path id="Path" d="M22.8208 4.44944C22.8208 4.44944 17.1343 4.44944 17.1343 4.44944C16.7602 1.92809 14.5903 0 11.9716 0C9.35278 0 7.18294 1.92809 6.80882 4.44944C6.80882 4.44944 1.12233 4.44944 1.12233 4.44944C0.523755 4.44944 0 4.96854 0 5.5618C0 6.15505 0.523755 6.67415 1.12233 6.67415C1.12233 6.67415 1.57127 6.67415 1.57127 6.67415C1.57127 6.67415 3.44182 25.8809 3.44182 25.8809C3.59147 27.4382 4.86345 28.5506 6.43471 28.5506C6.43471 28.5506 17.4336 28.5506 17.4336 28.5506C19.0048 28.5506 20.2768 27.364 20.4265 25.8809C20.4265 25.8809 22.297 6.67415 22.297 6.67415C22.297 6.67415 22.8208 6.67415 22.8208 6.67415C23.4194 6.67415 23.9431 6.15505 23.9431 5.5618C23.9431 4.96854 23.4194 4.44944 22.8208 4.44944C22.8208 4.44944 22.8208 4.44944 22.8208 4.44944Z" fill="#B473BE" fill-rule="evenodd" transform="translate(10.101 5.117)" />
    <path id="Path" d="M8.23045 4.44944C8.23045 4.44944 8.23045 4.07865 8.23045 4.07865C8.23045 1.85393 6.35989 0 4.11522 0C1.87056 0 0 1.85393 0 4.07865C0 4.07865 0 4.44944 0 4.44944" fill="none" stroke-width="4" stroke="#4F1D55" transform="translate(13.842 4.079)" />
    <path id="Path" d="M0 0L24.6913 0" fill="none" stroke-width="4" stroke="#4F1D55" stroke-linecap="round" transform="translate(5.612 7.786)" />
    <path id="Path" d="M0 11.4944L1.12233 0" fill="none" stroke-width="4" stroke="#4F1D55" stroke-linecap="round" transform="translate(27.31 8.528)" />
    <path id="Path" d="M0 0C0 0 1.49644 15.0539 1.49644 15.0539C1.64609 16.6112 2.91807 17.7236 4.48934 17.7236C4.48934 17.7236 15.4882 17.7236 15.4882 17.7236C17.0595 17.7236 18.3314 16.5371 18.4811 15.0539C18.4811 15.0539 18.8552 11.4944 18.8552 11.4944" fill="none" stroke-width="4" stroke="#4F1D55" stroke-linecap="round" transform="translate(8.006 13.793)" />
  </g>
</svg>